<?xml version="1.0" standalone="no"?>
<!DOCTYPE svg PUBLIC "-//W3C//DTD SVG 20010904//EN"
 "http://www.w3.org/TR/2001/REC-SVG-20010904/DTD/svg10.dtd">
<svg version="1.0" xmlns="http://www.w3.org/2000/svg"
 width="512.000000pt" height="512.000000pt" viewBox="0 0 512.000000 512.000000"
 preserveAspectRatio="xMidYMid meet">

<g transform="translate(0.000000,512.000000) scale(0.100000,-0.100000)"
fill="#000000" stroke="none">
<path fill="white" d="M2046 5104 c-131 -32 -258 -134 -314 -255 l-27 -59 -71 6 c-49 5 -96
1 -153 -10 -297 -60 -493 -287 -519 -601 l-7 -89 -40 -7 c-64 -11 -131 -42
-195 -88 -267 -195 -385 -753 -275 -1298 l24 -117 -35 -43 c-161 -197 -148
-460 33 -642 l64 -64 -23 -71 c-46 -143 -24 -330 56 -456 64 -101 177 -195
277 -230 l35 -13 11 -96 c13 -116 41 -203 94 -293 156 -265 451 -398 760 -342
36 6 37 5 44 -27 19 -91 122 -212 223 -263 163 -83 374 -45 500 88 l52 55 52
-55 c126 -133 337 -171 500 -88 101 51 204 172 223 263 7 32 8 33 44 27 196
-36 379 0 535 105 131 88 238 226 286 369 12 36 27 108 33 161 l11 96 43 16
c66 24 146 82 207 147 134 145 177 354 114 546 l-21 63 54 49 c192 176 209
474 37 658 l-29 31 25 124 c93 460 27 933 -165 1193 -77 103 -187 170 -329
200 -24 5 -25 8 -27 93 -3 168 -83 339 -211 452 -119 105 -308 170 -456 157
l-71 -6 -27 59 c-92 198 -332 311 -543 256 -87 -23 -152 -62 -222 -132 l-63
-63 -62 63 c-128 127 -282 172 -452 131z m247 -167 c74 -34 140 -103 166 -173
19 -49 21 -77 21 -264 0 -186 -2 -215 -20 -264 -57 -151 -202 -244 -366 -234
-96 6 -168 41 -244 117 -50 50 -67 61 -94 61 -33 0 -57 -18 -70 -53 -10 -30
22 -84 85 -141 108 -97 235 -142 379 -133 117 7 188 35 308 123 l22 16 1 -228
c0 -150 4 -241 12 -264 23 -67 111 -67 134 0 9 26 12 195 12 622 1 568 2 589
22 642 26 70 92 139 167 174 47 22 71 27 137 27 68 0 88 -5 138 -30 64 -32
115 -82 146 -144 l21 -40 -53 -30 c-66 -37 -146 -107 -157 -135 -9 -25 4 -64
28 -82 30 -24 64 -15 121 30 93 72 163 100 280 112 177 17 373 -91 458 -253
43 -80 67 -188 59 -256 -7 -53 -8 -55 -54 -76 -78 -37 -125 -82 -125 -120 0
-39 31 -73 67 -73 14 0 47 13 73 30 76 48 121 58 201 43 84 -15 136 -45 198
-114 177 -194 245 -632 167 -1070 -13 -74 -18 -87 -32 -82 -56 23 -114 35
-168 35 -55 0 -64 -3 -82 -26 -27 -34 -26 -57 2 -88 17 -20 37 -28 89 -35 85
-12 145 -39 202 -91 87 -80 124 -204 92 -312 -22 -77 -72 -147 -131 -185 -107
-68 -115 -91 -65 -189 80 -155 57 -329 -61 -458 -111 -122 -291 -165 -442
-107 -27 11 -27 11 -12 41 8 16 18 50 22 75 5 39 2 49 -17 70 -13 14 -35 25
-50 25 -27 0 -70 -25 -70 -40 0 -5 -9 -34 -21 -64 -72 -193 -312 -271 -483
-157 -21 14 -50 34 -65 43 -34 23 -53 23 -85 -3 -42 -33 -36 -77 18 -127 83
-76 187 -115 311 -115 118 0 207 31 293 100 l43 35 77 -25 c42 -14 103 -28
135 -32 66 -8 66 -7 42 -120 -36 -172 -150 -318 -305 -393 -227 -109 -453 -71
-658 111 -59 52 -77 56 -116 26 -35 -28 -35 -76 0 -119 31 -36 125 -110 172
-134 17 -9 32 -24 32 -34 0 -37 -49 -120 -95 -160 -136 -120 -351 -79 -438 83
-21 39 -22 53 -27 475 -4 327 -8 441 -18 457 -23 41 -101 43 -122 3 -6 -11
-14 -45 -18 -76 l-7 -57 -45 38 c-65 55 -172 103 -260 116 -41 6 -81 13 -87
15 -9 2 -13 27 -13 76 0 40 -5 93 -11 117 -27 120 -124 246 -232 302 -76 39
-111 36 -131 -13 -20 -47 -5 -78 59 -116 116 -70 168 -168 163 -311 l-3 -85
-40 -16 c-95 -36 -224 -139 -260 -210 -44 -85 62 -152 123 -78 54 65 107 109
168 139 114 57 266 49 380 -17 59 -35 131 -115 162 -182 27 -57 27 -58 27
-297 0 -227 -1 -242 -22 -280 -87 -162 -302 -203 -438 -83 -46 40 -95 123 -95
160 0 10 15 25 33 34 46 24 140 98 171 134 35 43 35 91 0 119 -15 12 -35 21
-45 21 -10 0 -46 -25 -81 -56 -84 -73 -168 -120 -263 -144 -138 -35 -249 -23
-385 42 -155 74 -269 221 -305 393 -23 112 -23 112 38 120 218 27 353 133 265
208 -28 24 -66 21 -113 -8 -64 -39 -170 -59 -252 -46 -184 29 -317 163 -345
349 -13 82 0 156 43 239 47 94 39 124 -45 171 -60 34 -105 84 -138 152 -33 68
-31 186 4 262 48 103 165 188 258 188 91 0 141 73 90 128 -17 18 -32 22 -79
22 -31 0 -81 -7 -110 -16 -29 -8 -55 -13 -57 -11 -10 10 -33 163 -44 291 -29
350 49 694 194 853 57 63 111 96 184 113 165 38 292 -62 372 -292 39 -113 47
-158 27 -158 -32 0 -194 -91 -239 -135 -54 -51 -60 -78 -27 -119 32 -41 72
-35 149 24 170 131 385 140 565 25 28 -18 63 -46 79 -63 l28 -31 -21 -43 c-11
-25 -21 -53 -21 -64 0 -39 -12 -42 -147 -46 -121 -3 -134 -5 -154 -25 -27 -27
-29 -75 -4 -103 16 -18 31 -20 157 -20 l138 0 0 -125 0 -125 -170 0 -169 0
-15 28 c-19 35 -72 85 -114 106 -81 41 -211 11 -272 -62 -128 -154 -20 -384
178 -383 36 0 74 7 94 17 42 21 95 71 114 107 l15 27 169 0 170 0 0 -125 0
-125 -138 0 c-126 0 -141 -2 -157 -20 -25 -28 -23 -76 4 -103 19 -20 34 -22
159 -27 l137 -5 7 -44 c16 -91 89 -162 187 -181 71 -13 971 -13 1042 0 98 19
171 90 187 181 l7 44 137 5 c125 5 140 7 159 27 27 27 29 75 4 103 -16 18 -31
20 -157 20 l-138 0 0 125 0 125 170 0 169 0 15 -27 c19 -36 72 -86 114 -107
20 -10 58 -17 94 -17 112 -1 204 73 228 184 23 101 -31 211 -125 257 -55 27
-149 29 -197 4 -42 -21 -95 -71 -114 -106 l-15 -28 -169 0 -170 0 0 125 0 125
138 0 c126 0 141 2 157 20 25 28 23 76 -4 103 -19 20 -34 22 -159 27 l-137 5
-7 44 c-16 92 -89 162 -188 181 -35 7 -241 10 -557 9 l-503 -1 -71 66 c-107
99 -230 153 -390 171 l-56 6 -23 87 c-52 206 -166 377 -294 443 -68 35 -76 49
-76 122 0 52 31 159 63 220 85 161 281 270 457 252 123 -12 175 -35 319 -140
41 -30 60 -31 95 -4 19 15 26 30 26 54 0 41 -56 99 -152 157 l-67 40 19 38
c80 158 262 221 423 147z m781 -1821 c23 -9 37 -24 45 -46 16 -46 16 -974 0
-1020 -21 -59 -26 -60 -557 -60 -332 0 -489 3 -512 11 -59 21 -60 26 -60 557
0 331 3 489 11 512 21 59 23 59 557 60 390 0 489 -3 516 -14z m-1735 -502 c43
-55 11 -134 -55 -134 -47 0 -70 14 -83 50 -20 60 16 110 80 110 29 0 42 -6 58
-26z m2551 16 c27 -14 41 -64 28 -100 -12 -36 -35 -50 -82 -50 -25 0 -40 7
-55 26 -43 55 -11 134 55 134 20 0 44 -4 54 -10z"/>
<path fill="white" d="M2950 4387 c-33 -17 -51 -72 -57 -173 -5 -75 -4 -83 18 -103 47 -43
113 -16 123 51 2 18 9 63 15 100 12 74 4 110 -28 127 -25 14 -40 14 -71 -2z"/>
<path fill="white" d="M2518 1659 c-24 -13 -41 -84 -33 -135 7 -50 34 -77 75 -77 16 0 39 8
49 17 41 37 34 173 -9 196 -24 13 -60 12 -82 -1z"/>
<path fill="white" d="M2224 2953 c-12 -2 -30 -13 -40 -25 -18 -19 -19 -43 -19 -369 l0
-348 23 -23 23 -23 349 0 349 0 23 23 23 23 0 349 0 349 -23 23 c-22 23 -23
23 -355 24 -182 1 -342 0 -353 -3z m581 -393 l0 -245 -245 0 -245 0 -3 235
c-1 129 0 240 3 247 3 11 56 13 247 11 l243 -3 0 -245z"/>
</g>
</svg>
